<svg id="Layer_1" data-name="Layer 1" xmlns="http://www.w3.org/2000/svg" viewBox="0 0 512 512"><title>business-suitcase-flat</title><path d="M256,510.4C116.1,510.4,2.28,396.28,2.28,256S116.1,1.6,256,1.6,509.72,115.73,509.72,256,395.9,510.4,256,510.4Z" fill="none" stroke="#131313" stroke-miterlimit="10" stroke-width="4.56"/><ellipse cx="256" cy="256" rx="217.71" ry="218.3" fill="#131313"/><path d="M347.47,195.34H277.34c-.5-6-2.13-12.66-6.23-17.72-4.43-5.45-10.77-8.21-18.88-8.21-8.69,0-15.53,2.82-20.37,8.42-4.53,5.21-6.3,11.9-6.95,17.52H164.51a6.87,6.87,0,0,0-6.86,6.88v53.4h38.48a4.55,4.55,0,0,1,9,0h92.78a4.54,4.54,0,0,1,9,0h47.41v-53.4A6.89,6.89,0,0,0,347.47,195.34Zm-112.79,0c.54-3.83,1.8-8,4.53-11.17,2.95-3.39,7.21-5.05,13-5.05,5.1,0,8.81,1.51,11.34,4.61s3.59,7.32,4,11.61Z" fill="#ede9e2"/><path d="M307,270a4.57,4.57,0,1,1-9.15,0v-5.9H205.23V270a4.58,4.58,0,1,1-9.16,0v-5.9H157.66V335.7a6.88,6.88,0,0,0,6.86,6.89h183a6.89,6.89,0,0,0,6.87-6.89V264.12H307Z" fill="#ede9e2"/></svg>